<svg width="41" height="21" viewBox="0 0 41 21" fill="none" xmlns="http://www.w3.org/2000/svg">
<path d="M2.07441 16.7111C1.89477 16.4223 1.65525 15.9609 1.50731 15.6192C0.644327 13.6185 0.605581 11.5473 1.33119 9.56073C2.13077 7.38038 3.65947 5.7143 5.63552 4.86189C8.11879 3.79461 10.8627 4.00243 13.2438 5.4149C14.7549 6.2814 15.8257 7.6199 16.6394 9.51494C16.7415 9.75798 16.8331 10.0151 16.9247 10.237L2.07441 16.7111ZM7.0339 8.07781C5.2692 8.83512 4.36043 10.4906 4.55063 12.4279L12.0181 9.21201C10.7324 7.70444 9.06279 7.20426 7.0339 8.07781V8.07781ZM12.948 15.0732C12.9444 15.0732 12.9444 15.0768 12.9444 15.0768L12.7894 14.9711C12.3421 15.6932 11.6482 16.2814 10.7711 16.6618C9.10153 17.3874 7.55521 17.2007 6.44214 16.225L6.33999 16.38C6.33999 16.38 6.33999 16.3765 6.33647 16.3765L4.44144 19.212C4.91343 19.5396 5.41713 19.8143 5.94549 20.0362C8.03778 20.9063 10.1794 20.864 12.2893 19.9482C13.8145 19.286 15.0121 18.2786 15.8293 17L12.948 15.0732ZM22.1132 0.691406V16.4505L24.5647 17.4438L23.1734 20.6914L20.4682 19.5642C19.8624 19.3001 19.4467 18.8985 19.1368 18.4441C18.8374 17.9827 18.6154 17.3452 18.6154 16.4927V0.691406H22.1132ZM28.4605 12.4385C28.4605 11.0965 29.0557 9.89183 29.9927 9.07464L27.4777 6.27084C25.7729 7.77841 24.6986 9.97989 24.6986 12.4315C24.6951 14.8865 25.7694 17.0915 27.4707 18.5991L29.9821 15.7953C29.0487 14.9746 28.4605 13.777 28.4605 12.4385V12.4385ZM32.9268 16.9084C32.4337 16.9084 31.9546 16.8238 31.5108 16.6759L30.3097 20.2441C31.1304 20.5188 32.0075 20.6703 32.9233 20.6703C36.9036 20.6738 40.2252 17.8489 40.9966 14.0975L37.3051 13.3437C36.886 15.3832 35.086 16.9119 32.9268 16.9084V16.9084ZM32.9374 4.20673C32.0251 4.20673 31.148 4.35467 30.3273 4.62589L31.5179 8.19757C31.9652 8.04963 32.4407 7.96862 32.9339 7.96862C35.0966 7.97214 36.9001 9.50789 37.3086 11.5509L41.0001 10.8041C40.2428 7.04576 36.9212 4.21025 32.9374 4.20673V4.20673Z" fill="url(#paint0_linear_1213_221)"/>
<defs>
<linearGradient id="paint0_linear_1213_221" x1="20.9104" y1="0.691406" x2="20.9104" y2="20.6914" gradientUnits="userSpaceOnUse">
<stop stop-color="white"/>
<stop offset="1" stop-color="white" stop-opacity="0.75"/>
</linearGradient>
</defs>
</svg>
